Coordinates
version=1
nRows=13
nColumns=18
inDegrees=yes

Units are S.I. units (second, meters, Newtons, ...)
If the header above contains a line with 'inDegrees', this indicates whether rotational values are in degrees (yes) or radians (no).

endheader
time	ground_thorax_rot_x	ground_thorax_rot_y	ground_thorax_rot_z	ground_thorax_tx	ground_thorax_ty	ground_thorax_tz	clav_prot	clav_elev	scapula_abduction	scapula_elevation	scapula_upward_rot	scapula_winging	plane_elv	shoulder_elv	axial_rot	elbow_flexion	pro_sup
      2.40000000	      1.14784283	     -7.87982444	     -6.40951430	     -0.00828479	      0.00897246	      0.00325953	    -34.50764583	     11.48645504	    -28.10255739	      2.91284192	     29.22209956	     -4.04404765	     25.46945537	      5.44144736	     -8.97158459	      0.00000000	     34.32000000
      2.41000000	      1.14756197	     -7.87970618	     -6.41006299	     -0.00831774	      0.00900890	      0.00328323	    -34.50760438	     11.48684475	    -28.10249498	      2.91306460	     29.22238704	     -4.04412813	     25.46939454	      5.44203387	     -8.97156370	      0.00000000	     34.32000000
      2.42000000	      1.14336714	     -7.88617399	     -6.42498578	     -0.00837604	      0.00899612	      0.00320832	    -34.50336181	     11.50935045	    -28.09975450	      2.92713568	     29.23400182	     -4.04651681	     25.46474626	      5.47428837	     -8.97267349	      0.00000000	     34.32000000
      2.43000000	      1.14025290	     -7.92205567	     -6.42376416	     -0.00840024	      0.00896821	      0.00318847	    -34.51093239	     11.51957827	    -28.11505358	      2.93298193	     29.23757655	     -4.05111119	     25.45972474	      5.49428157	     -8.97430963	      0.00000000	     34.32000000
      2.44000000	      1.18857500	     -7.98569548	     -6.40864006	     -0.00840282	      0.00890679	      0.00329500	    -34.52802136	     11.50828174	    -28.14607354	      2.92602875	     29.22437030	     -4.05407052	     25.44856549	      5.53488557	     -8.97725139	      0.00000000	     34.32000000
      2.45000000	      1.29706851	     -8.02561902	     -6.41013489	     -0.00836785	      0.00887028	      0.00335930	    -34.52862950	     11.42916511	    -28.18251229	      2.89141973	     29.11864577	     -4.02040803	     25.37787161	      5.79575840	     -9.00783282	      0.00000000	     34.32000000
      2.46000000	      1.29793515	     -8.02564368	     -6.40960073	     -0.00836956	      0.00874999	      0.00338085	    -34.52866235	     11.42859098	    -28.18254632	      2.89109265	     29.11823627	     -4.02028094	     25.37779846	      5.79565361	     -9.00787793	      0.00000000	     34.32000000
      2.47000000	      1.29767455	     -8.02534744	     -6.40949543	     -0.00831126	      0.00883118	      0.00333271	    -34.52855370	     11.42859545	    -28.18238285	      2.89110838	     29.11822567	     -4.02023200	     25.37782452	      5.79553695	     -9.00793882	      0.00000000	     34.32000000
      2.48000000	      1.24897392	     -7.98149165	     -6.38478940	     -0.00839573	      0.00899944	      0.00315677	    -34.50621127	     11.42793886	    -28.15132865	      2.89414608	     29.11169459	     -4.00859715	     25.38414170	      5.74462232	     -9.01800012	      0.00000000	     34.32000000
      2.49000000	      1.24752135	     -7.98098040	     -6.38533772	     -0.00836143	      0.00916508	      0.00316812	    -34.50590091	     11.42869797	    -28.15094682	      2.89464365	     29.11192854	     -4.00880204	     25.38421635	      5.74438143	     -9.01807385	      0.00000000	     34.32000000
      2.50000000	      1.20163601	     -7.89605503	     -6.38358890	     -0.00848380	      0.00913693	      0.00312734	    -34.46106237	     11.44948864	    -28.08952888	      2.91335919	     29.11384316	     -3.99116976	     25.39381762	      5.70475130	     -9.02685847	      0.00000000	     34.32000000
      2.51000000	      1.20174714	     -7.89450523	     -6.38298312	     -0.00840095	      0.00903385	      0.00330262	    -34.46069344	     11.44920948	    -28.08865524	      2.91316620	     29.11399306	     -3.99104761	     25.39384821	      5.70516625	     -9.02688063	      0.00000000	     34.32000000
      2.52000000	      1.31533287	     -7.89561910	     -6.39717254	     -0.00841152	      0.00895238	      0.00335141	    -34.40779224	     11.44574165	    -28.03174368	      2.92386698	     29.07483364	     -3.95711107	     25.36705979	      5.88184796	     -9.03484317	      0.00000000	     34.32000000
